<svg width="24" height="24" viewBox="0 0 24 24" fill="none" xmlns="http://www.w3.org/2000/svg">
<path d="M9.99995 14.65V9.35001L15 12L9.99995 14.65ZM17.77 10.32C17 10 16.57 9.82001 16.57 9.82001L18 9.06001C19.84 8.10001 20.53 5.83001 19.56 4.00001C18.59 2.17001 16.32 1.47001 14.49 2.44001L5.99995 6.94001C4.70995 7.62001 3.92995 8.98001 3.99995 10.43C4.06995 11.85 4.92995 13.1 6.21995 13.68C6.24995 13.69 7.41995 14.18 7.41995 14.18L5.99995 14.93C4.16995 15.9 3.46995 18.17 4.43995 20C5.40995 21.83 7.67995 22.53 9.50995 21.56L18.01 17.06C19.3 16.38 20.07 15.02 20 13.57C19.93 12.15 19.06 10.89 17.77 10.32V10.32ZM17.54 16.18L9.03995 20.68C7.69995 21.39 6.02995 20.88 5.31995 19.54C4.60995 18.2 5.11995 16.53 6.45995 15.82L8.49995 14.74V13.53L7.80995 13.25L6.69995 12.79C5.70995 12.38 5.04995 11.44 4.99995 10.38C4.94995 9.32001 5.51995 8.32001 6.45995 7.82001L14.96 3.32001C16.3 2.61001 17.97 3.12001 18.68 4.46001C19.39 5.80001 18.88 7.47001 17.54 8.18001L15.5 9.26001V10.47L17.3 11.21C18.29 11.62 18.95 12.56 19 13.62C19.05 14.68 18.48 15.68 17.54 16.18Z" fill="#4F4F4F"/>
</svg>
