<svg width="24" height="24" viewBox="0 0 24 24" fill="none" xmlns="http://www.w3.org/2000/svg">
<path d="M17.53 11.2C17.3 10.9 17.03 10.64 16.77 10.38C16.12 9.78 15.37 9.35 14.74 8.72C13.28 7.26 12.96 4.85 13.89 3C12.99 3.23 12.14 3.75 11.44 4.32C8.90003 6.4 7.90003 10.07 9.10003 13.22C9.14003 13.32 9.18003 13.42 9.18003 13.55C9.18003 13.77 9.03003 13.97 8.83003 14.05C8.61003 14.15 8.37003 14.09 8.19003 13.93C8.13003 13.88 8.09003 13.83 8.04003 13.76C6.94003 12.33 6.76003 10.28 7.51003 8.64C5.87003 10 5.00003 12.3 5.12003 14.47C5.16003 14.97 5.22003 15.47 5.39003 15.97C5.53003 16.57 5.79003 17.17 6.11003 17.7C7.15003 19.43 8.98003 20.67 10.95 20.92C13.05 21.19 15.3 20.8 16.91 19.32C18.71 17.66 19.36 15.02 18.41 12.72L18.28 12.46C18.08 12.01 17.81 11.59 17.5 11.21L17.53 11.2ZM14.43 17.5C14.15 17.74 13.7 18 13.35 18.1C12.25 18.48 11.15 17.94 10.47 17.28C11.67 17 12.37 16.12 12.57 15.23C12.74 14.43 12.43 13.77 12.3 13C12.18 12.26 12.2 11.63 12.5 10.94C12.65 11.32 12.85 11.7 13.08 12C13.84 13 15.03 13.44 15.28 14.8C15.32 14.94 15.34 15.08 15.34 15.23C15.37 16.05 15.02 16.95 14.42 17.49L14.43 17.5Z" fill="#606060"/>
</svg>
